<svg width="26" height="25" viewBox="0 0 26 25" fill="none" xmlns="http://www.w3.org/2000/svg">
<path fill-rule="evenodd" clip-rule="evenodd" d="M6.1801 5.51344C6.58689 5.10664 7.24644 5.10664 7.65324 5.51344L13.1667 11.0269L18.6801 5.51344C19.0869 5.10664 19.7464 5.10664 20.1532 5.51344C20.56 5.92024 20.56 6.57978 20.1532 6.98658L14.6398 12.5L20.1532 18.0134C20.56 18.4202 20.56 19.0798 20.1532 19.4866C19.7464 19.8934 19.0869 19.8934 18.6801 19.4866L13.1667 13.9731L7.65324 19.4866C7.24644 19.8934 6.58689 19.8934 6.1801 19.4866C5.7733 19.0798 5.7733 18.4202 6.1801 18.0134L11.6935 12.5L6.1801 6.98658C5.7733 6.57978 5.7733 5.92024 6.1801 5.51344Z" fill="#1D4ED8"/>
</svg>
